<svg enable-background="new 0 0 1728 1728" fill="#C9C9C9" viewBox="0 0 1728 1728" xmlns="http://www.w3.org/2000/svg"><path d="m1655.3 1145.7c-15.2-30.9-31.1-57.8-68.6-59.8-45.3-2.4-92.4 10.6-136.8 17.9-36.2 5.9-74.4 3.5-110.5 10.5-.7-115.8-5.4-231.7 2.8-347.4 1-14.6-6.2-23.9-16.2-28.3-1.1-.9-2.2-1.7-3.4-2.5-47-27.8-105.2-40.5-156.5-58.7-59-21-118.2-41.8-177.5-62-112.9-38.6-226.4-75.6-340.1-111.8-11-92.8-19.7-196.7-78.5-272.3-56-71.9-165-90.5-250.9-86.7-100.9 4.4-192.7 56.5-246.2 142.4-57.3 91.9-66.8 215-20.1 313.1 22.7 47.6 56.5 89.3 98.8 120.6 35.7 26.4 76.4 44.8 117.1 62.4-15.4 52.4-28.1 105.4-42.3 158.1-14.5 53.9-33.2 106.2-51.9 158.7-30.8 86.7-62.8 181.4-54.4 275 3.6 40.3 23.3 69.4 59.4 88.5 33.3 17.6 74.1 27.4 110.6 14.2 72.2-26 97.1-110.3 114.1-177.3 25.3-100.4 44.9-203.1 75.8-302 147.4 74.1 306.8 120.3 465.3 164.6-10.1 43.9-2.4 92.5.8 136.4 1.9 25.6 1.9 51.2 3.6 76.8 1.9 28.1 2.3 63.7 17.3 88.5 6.2 10.4 17.6 14.7 28.5 14.1.8.4 1.6.8 2.5 1.1 40.1 16 88 5.2 129.9 4.1 49.6-1.3 99.2-10.2 148.6-15.2 50.3-5.1 100.5-12 150.6-18.6 45.2-6 92.1-9.2 136.6-19.4 36.8-8.4 68.6-27.5 85.5-62.3 16.2-33.2 27.1-75.1 30.3-111.7 3.4-39.8-6.8-75.6-24.2-111zm-379.3-365.4c-5.7 88.6-4.6 177.4-3.2 266.2-44.3 32.4-93.5 57.4-141.9 83.1-25.1 13.3-49.9 27.3-75.3 40.2-11 5.6-22.2 10.5-33.5 15.2.8-11.9.3-23.9-2.4-35.3-2.4-10.4-7.8-19.9-15.7-26.9-3.5-6.8-9.6-12.5-19-15.4-1.3-.4-2.6-.8-3.8-1.2 14.4-17.5 24.1-39.1 33.5-59.4 15.1-32.6 33.2-63.7 48.8-96 33.6-69.8 65.4-140.5 100.9-209.4 37.1 13.2 74.3 26.4 111.6 38.9zm-803.8 146.7c-16.7-6.1-38.6-1.1-46.4 20.5-33.9 94.2-53.1 192.7-77.2 289.6-13 52.5-19.6 119.3-57.9 160.7-18 19.5-39.6 21.6-64.2 13.6-12.5-4.1-29.6-11-37.1-22.6-4.7-7.2-4.6-20.4-4.8-30-1.9-83.6 24.7-163.1 53.6-241.3 19.4-52.4 37.5-104.7 51.5-158.8 14.9-57.4 27.2-115.5 43.3-172.6 1.5-5.4 1.6-10.4.7-14.8 2.7-12.9-2.1-28.5-14.5-34.1-67.3-30.7-137.6-61.8-181.6-124.3-53.4-76-62.7-172.2-26.4-258 32.3-76.3 101.6-130.9 183.5-143.6 67-10.4 160.4-1.2 213.1 45.4 33.9 30 48 79.5 57.8 122.1 10.8 47.1 15.5 95.3 21.9 143.2 1.7 12.6 7.9 23.7 18.6 28.7 3.6 4.5 8.6 8.2 15.4 10.4 116 36.3 231.5 74 346.6 112.9 44.8 15.2 89.5 30.5 134.1 45.9-33.1 62.7-62.8 126.9-92.9 191.1-14.8 31.5-32.2 61.8-47 93.3-11.4 24.2-20.5 53.1-41.8 70.5-3.6 2.9-6 6.7-7.6 10.9-144.1-43.1-288.8-85.7-423-154.8-6.2-3.3-12.1-4.2-17.7-3.9zm1142.6 322.3c-1.6 27.2-10.8 61.1-22.9 85.7-13.6 27.7-46.4 30.8-74.1 34.2-81.8 10.2-163.6 18.7-245.6 26.8-46.6 4.6-93.2 13.1-140 15.3-38.2 1.8-76 6-114.2 3.8-.3-1.8-.7-3.6-.9-5.4-1.7-11.9-2.4-24-3.1-36-1.4-24.8-1.8-49.6-3.8-74.4-1-12.2-2.1-24.4-3-36.6 27.6-6 55.5-20.4 80.4-32.8 26.2-13.1 51.9-27.5 77.9-41.2 37.2-19.6 73.7-39.6 108.5-62.6.1 10.8.3 21.6.3 32.4.2 29.3 31.8 38 50.9 26.3.6-.2 1.1-.2 1.7-.5 32-12.3 66.3-9.6 99.8-12.5 40-3.5 79-13.4 118.8-17.8 12.5-1.4 25.9-1.1 38.2-3.1 1.7 4.9 7.1 11.4 9.2 15.3 14.3 26.7 23.7 52.3 21.9 83.1z"/></svg>