<svg enable-background="new 0 0 1051.2 1728" fill="#FF90BC" viewBox="0 0 1051.2 1728" xmlns="http://www.w3.org/2000/svg"><path d="m38.8 414.2c-16.3 49.1-4.9 118-7.3 169.9-2.9 62.7-2.5 127.2-2.5 190.7 0 112.1-2.5 223.7-6.6 334.4-2.5 67.6 6.9 135.4 6.5 204-.5 3.7 1.9-3.1 3.3-4" fill="none"/><path d="m59.5 369.7 5.3 960s162.3 362.3 463.8 352.4c362.8-11.9 472.4-355.1 472.4-355.1v-928.4s-134.9-352.4-452.4-352.4c-325.5 0-489.1 323.5-489.1 323.5z" fill="none" stroke="#FF90BC" stroke-miterlimit="10" stroke-width="16"/><path d="m967.4 750.9c-94.4 52.9-192.5 98.8-290.2 145.1-48 22.7-96.6 44.6-143.8 68.9-18.2 9.4-35.3 20.9-52.6 31.9-19.3 12.2-39.1 20.1-59.3 30.2-1.3.6-2.4 1.4-3.5 2.2-41.9-25.9-84-51.6-126.8-76.2-36.7-21.1-73.2-42.7-110.4-62.8-31.5-17.2-57.6-42.3-92.5-52.8-45.3-13.6-62.6 54.2-19.3 70 15.1 5.5 28.1 17.3 40.7 26.9 15.1 11.5 31.1 20.8 47.5 30.3 35.6 20.6 70.8 41.7 106.1 62.7 72.8 43.3 143 90.3 214.9 135.2 30.2 18.9 60.6 37.5 91 56-59.7 28.5-116.6 61.9-174.8 94-37 20.4-76 36.9-113 57.4-37.8 20.9-72.5 46.1-110.9 66s-11.9 84 29.6 70.3c40.4-13.3 74.1-41.9 110.5-63 36.5-21.2 75.7-37.6 112.8-57.8 73.6-40 143.5-88.1 220.8-121 16.8 10.2 33.6 20.4 50.3 30.7 71.7 44.2 146.3 81.3 221.8 118.5 49.1 24.2 92.4-49.4 43.1-73.7-75.6-37.3-150.3-73.9-222-118.2-74.4-46-150.5-89.3-225.3-134.8-6.1-3.7-12.2-7.5-18.3-11.2 23.5-12.1 45.9-29.1 66.3-40.5 47.3-26.5 98.1-47.8 147-71.1 100.2-47.8 199.6-97.2 293.8-156 36-22.6 3.8-78.1-33.5-57.2z"/><path d="m796.3 262c-49.8-63.7-130.4-113.9-211.4-124.3-34.9-4.5-70.8-.8-105.2 5.6-32.9 6.1-66.5 16.2-91.8 39.1-4.4 4-7.2 9.1-8.8 14.6-31.2 18.6-59.8 42.6-85.5 66.4-59.5 55.3-101.7 129.3-109 211.1-12.5 139.1 67.5 300.2 196.1 360.2 38.8 18.1 80.1 25.9 122.9 24.3 41.7-1.6 87.3-4 128.1-12.6 71.1-14.9 136.1-69.9 180.1-125.8 49.5-63 77.5-153.4 77.9-233.4.5-82.3-44.1-162.1-93.4-225.2zm-159.2-26.4c1.2-1.2 2.1-2.5 3.1-3.7 26.6 12.8 52.1 29.6 71 46.3 38.4 34 69.1 85.7 85.6 136.8-.8.1-1.7.2-2.5.3-13.2 1.1-26.5 1.2-39.8.8-26.7-.9-52.5-6.3-77.9-14.7-45-14.8-84.3-41.4-116.6-75.6 2-2.6 4-5.1 6-7.6 22.3-29.1 45.1-56.6 71.1-82.6zm-317.4 99.1c45.7-49.2 111.8-109.4 183.4-104.8 16.1 1 26-7.7 29.8-19 11-.8 22-1 32.9-.5 2.1.1 4.3.6 6.5.8-41.9 43.3-69.9 99.8-116 139.5-27.3 23.5-60.2 43-92.4 59-16.7 8.3-32 13.7-50.7 14.5-16.6.6-32.9.9-49.1 3.6 11.4-34.3 30.3-65.9 55.6-93.1zm453 299.8c-14.7 28.9-35.2 51.7-57.5 75-20.2 21-39.5 39.7-65.6 53.2-27.7 14.3-56.9 16-87.4 19.2-33.5 3.6-69.3 9.8-103 4.8-56.7-8.4-108.7-52.9-141.8-97.5-33.9-45.7-56.8-101.3-63.9-157.9-1.7-13.8-1.8-27.5-1.1-41.1 3.8.5 8 .3 12.5-1 20-5.6 40.3-3.6 60.7-5.5 23-2 42.7-9.4 63.3-19.3 35.9-17.3 70.2-39.1 101.3-63.8 10.3-8.2 19.7-17.3 28.8-26.7 38.5 41.2 86.9 72.5 139.7 92.4 29.8 11.3 61.6 17.4 93.4 19.7 17.8 1.3 37.8 1.4 57-1.5.7 51.2-14.6 107.2-36.4 150z"/><path d="m622.3 582.2c-8 5.5-14.8 12.4-22.1 18.9-3 2.7-6 5.3-9.1 7.8-.4.4-2.9 2.3-3.2 2.6-1.2.9-2.5 1.8-3.7 2.7-7 5-14.5 8.8-21.9 13.1-.2.1-.3.2-.4.3 0 0 0 0-.1 0-1.8.6-3.6 1.4-5.4 2s-3.6 1.1-5.5 1.6c-.7.2-2.6.5-3.6.6-3.1.2-6.2.3-9.4.2-.7 0-1.2-.1-1.6-.1-1.6-.3-3.2-.6-4.7-.9-4.5-1-8.9-2.3-13.2-3.8-2-.7-3.9-1.4-5.8-2.1-.4-.1-.5-.2-.7-.3s-.3-.1-.5-.2c-16-7.2-31-16.5-45.7-26.2-13.5-8.9-34.6-3.1-42.1 11-8.2 15.5-3.2 32.5 11 42.1 33.8 22.8 75.2 47.6 117.8 42.6 22.3-2.6 42.6-11.3 60.8-24.4s37-28.3 50.6-46.4c17.9-23.9-17.5-57.6-41.5-41.1z"/></svg>