<svg enable-background="new 0 0 780.4 1728" fill="#7d55b9" viewBox="0 0 780.4 1728" xmlns="http://www.w3.org/2000/svg"><path d="m300.3 128.5c.8-1.6 1.1-2.3 1-2.3-.3.7-.7 1.4-1 2.1.1.1.1.1 0 .2z"/><path d="m741.9 843.4c-.9-42.3-2.8-85.9-18.9-125.6-14.3-35.3-38.3-72.6-74.1-89-19.6-8.9-40.8-10.9-62.1-11-23.2 0-45.5-.7-68.6-3.5-4.3-.5-8.3-.8-12.4-1.1 12.9-7.7 24.7-17 36.6-27.5 18.5-16.3 36.6-30.1 50.4-51 12.1-18.3 19.8-39.9 23.1-61.5 7-46.2-2.7-92.8-24.2-134.1-22.8-43.9-63.6-77.8-107.3-99.8-46.7-23.4-103.2-37.8-154.3-20-.9.3-1.7.8-2.6 1.2-2 0-3.8.2-5.8.3-1.7-.3-3.4-.6-5-1.1-.6-.2-1.4-.4-2.2-.6-.2-.2-.5-.4-.7-.5-1.7-1-3.3-2.1-5-3.1-.9-1-2-1.8-2.9-2.8-.3-.3-.9-.9-1.5-1.4 0-.1 0-.1-.1-.2-1.4-2.3-2.9-4.4-4.2-6.7-.6-1-1-2.1-1.6-3.2-.8-2.3-1.7-4.6-2.4-6.9-.7-2.5-1.3-5-1.8-7.5-.3-1.3-.5-2.6-.7-3.9 0-5.6-.8-11.2-.7-16.9 0-2.7.2-5.5.4-8.2 0-.2.1-2.1.3-3.4 0-.2.1-.4.1-.7 1-5.6 2.2-11.2 3.8-16.7.8-2.8 1.9-5.5 2.8-8.3v-.1c-.1.3-.2.5-.4.8.2-.3.3-.7.5-1 .4-.9 1-2.2 1-2.1.1-.1.1-.3.2-.4 1.6-3.3 4.1-9.2 7-12.3.3-.3.6-.5.9-.8.8-.9 1.6-1.8 2.4-2.6 1.4-1.5 3-2.7 4.5-4.2.8-.5 1.6-1 2.4-1.5 1-.6 2-1.1 2.9-1.6.4-.2.6-.3.9-.4 2.6-.9 5.2-1.8 8-2.5 1.4-.3 2.7-.6 4.1-.9.2 0 1-.2 1.8-.3.9-.1 1.9-.2 2-.2 1.4-.1 2.9-.2 4.3-.2 3.5-.1 7 0 10.4.3.9.1 1.8.2 2.7.3.5.1 1 .2 1.4.2 2.8.6 5.7 1.1 8.5 1.9 2.8.7 5.4 1.7 8.2 2.6.3.1.6.2 1 .4 1.4.6 2.7 1.3 4.1 2 2.6 1.4 5 3.1 7.5 4.5.1 0 .1 0 .2.1 1 1.1 2.3 2 3.3 3.1.8.8 1.6 1.8 2.4 2.6.1.2.2.3.3.5.6 1.1 1.2 2.3 1.9 3.3.2.9.4 2.3.8 3.2v.4c0 .8-.1 2.1 0 3-.1.5-.2 1-.3 1.5-.3 1-.7 2.1-.9 3.2-.2.6-.3 1-.4 1.2-.2.5-.5 1-.7 1.5-1.9 3.6-4.2 7-6.6 10.3-7.3 10-1.7 25.5 8.2 31.3 11.7 6.9 23.8 1.7 31.3-8.2 21.7-28.6 20.8-67.2-7.5-91.1-25.9-22-61.9-29.3-95-23.8-65 10.7-88.5 88.7-76.8 145.6 2.9 14.2 9 27.9 17.7 39.5-50.3 29.1-86 90.4-101.4 142.1-24.7 83.3 6.7 183 78.3 233.6-1.1 0-2.2-.2-3.3-.2-39.9-1.1-85.1 1-120.4 21.8-61.5 36.3-75.7 112.5-84.2 177.5-6 45.7-10 91.6-11.7 137.7-1.6 43.4-5.7 89.9 1.2 133 5.1 31.4 26.4 55.2 58.2 60.5 30 5 69.9 4.4 97.7-10.7-.3 2.9-.3 6 .6 9.4 4 16.2 3.2 36 3.8 52.7.7 22.3 1.4 44.5 2.6 66.8 2.5 46.1.7 92.1 1.3 138.2.5 42.7 2.2 85.6 5 128.2 2 30.4 5.4 62.5 20.1 89.8 16.7 31.1 48.3 40.8 81.8 41.1 28.1.2 64.1-1.8 87.9-18.6 6.7-4.8 12.5-10.3 17.5-16.4 2 2.1 4.1 4.2 6.5 6.2 27.1 22.9 64.9 29 99.3 24.6 34-4.3 71.5-17.4 88.8-49.2 15.3-28.1 16.8-64.7 18.9-95.9 2.9-43.3.9-86.7-.8-130-.9-23.8-2.6-47.7-2.1-71.6.5-24.7 2.7-49.3 2.8-73.9.1-23.1-2.9-46.3-1.1-69.4.7-9.2 2.6-18.4 3.8-27.5 7.2 2.9 14.8 5.2 23.3 5.9 37.6 3.2 71.7-20.7 85.5-54.6 12.5-30.6 11.5-65.9 13.3-98.4 2.4-49.2 5.3-98.1 4.2-147.1zm-505-342c-6.1-13.8-10.4-29.1-12.5-44.1-.7-4.8-1.1-11.9-1.2-17.5-.1-4.4.1-8.7.3-13.1.1-1.8.3-3.6.5-5.4 0-.3.1-.6.2-1 5.8-33.6 20-65.8 41.3-92.7 9.6-12.1 20.8-22.9 33.2-30.2 13.7-8 21.9-9.5 37.9-7.9 7.2.7 14.1-1.8 19.7-6.1 57.3-14.4 130 24.7 164.5 70.7 33.1 44.2 44.5 119.7-1.2 161.6-12.9 11.8-27 24.6-41.2 34.9-15.6 11.3-35.8 14.8-54.4 18.5-21.7 4.3-43.5 5.5-65.6 4.8-20.5-.7-43.7-1.2-63-9-26.5-10.5-46.9-37-58.5-63.5zm-21.2 587.4c6.1-15.3 9.6-32.3 11.6-49.2 1.2.4 2.2 1 3.4 1.3 16.8 4.2 34.3.2 50.9-2.7 33.6-5.8 68.5-3.5 102.5-3.3 32 .1 63.9.5 95.8-3.1 20.7-2.3 52.3-10.1 71 2 .8.5 1.6.8 2.4 1.2 1.4 9.1 3.3 18 5.5 26.9-2.1 1.3-4.2 2.9-6 5.1-12.8 15.4-28.4 27.5-42 42-12.8 13.5-23.1 28.9-36.8 41.6-9.5 8.8-19.1 22.1-32.4 24.6-17.2 3.2-36.8 2.3-54.3 3.8-38 3.1-71.1-2.7-103.1-24.3-15.8-10.7-29.7-24.4-42.4-38.6-6.4-7.4-19.8-17.5-26.1-27.3zm92.7 515.3c-20.5 1.1-42.4 3-51.5-18.1-9.9-23-10.1-50-11.3-74.6-2.1-41.5-3.6-83.1-4.3-124.6-.7-45.1-.2-89.9-3.5-135-1.6-22-1.4-44.3-3.5-66.2-.1-1.3-.2-2.7-.3-4 4.8 4.3 9.7 8.4 14.9 12.4 37.8 28.5 80.8 43.2 128.1 41.3-.3 3.2-.3 6.5.5 10.1 4.4 19.2 4.3 39.5 3.3 59.7-1.8 19.9-5.1 39.9-5.4 59.1-.4 25.6 1.3 51.3 1.8 76.9-.1 5-.2 9.9-.3 14.9-.3 9.6-.5 19.3-.7 29-1.5 19.6-3.9 40.8-3.5 61.5-1.9 14.3-5.3 28.6-12.7 40.2-10.3 15.9-31.7 16.3-51.6 17.4zm245.9-57.8c-1.6 27.6-9.6 43.6-37.5 51-23.1 6.1-54.5 6.6-73.7-9.8-9.7-8.3-13.8-21-15.2-35.5 3.6-22.7 4.5-45.9 5.3-66.5 1.8-43.5 1.7-87.1 2.9-130.6 1.2-40.8 6.1-82.5-2.7-122.8 4-.3 8.1-.5 12-.9 24.1-2.5 40.5-14.4 57.9-30.4 15.5-14.2 29.1-28.6 42.8-44.5 3.6-4.1 7.3-8.1 11.1-11.9-.9 4.2-1.8 8.3-2.3 12-2.1 19.2-1 38.3-.2 57.5 1.4 38.2-3.7 76.2-2.7 114.4.9 38.9 5 77.7 5.9 116.6.8 34-1.6 67.5-3.6 101.4zm130.8-519.3c-1 19.7-2.7 49.4-23.1 59.3-24.2 11.7-43-1.3-50.1-24.8-23-75.5-9.9-156.6-10.3-234.1-.2-30.7-47.3-30.7-47.7 0-.7 48.9-6.2 100.3-5.2 150.8-18.3-3.5-38-2.1-55.8-.2-34.2 3.7-68 4.9-102.4 4.8-37-.1-74.3-1.6-111 4.2-14.8 2.4-29.7 8.7-43.8 2.1-1.9-.9-3.8-1.7-5.8-2.5.2-52.3-7.6-105.3 1.3-157.1 2.6-15.1-4-30.5-19.8-34.9-13.6-3.7-32.3 4.6-34.9 19.8-7.3 43.1-5.9 85.9-3.7 129.4 2.1 41.3 4.1 83.6-7.9 123.6-7.6 25.3-31.4 24.2-54.2 24.6-8.6.1-23.4-.1-28.1-3.1-5.3-3.4-7.2-12.3-8.1-21-4.2-37.4-.9-77.2.3-114.7 1.3-40.3 3.1-80.6 7.6-120.7 5.5-48.7 11-115.7 54.1-147.5 28.8-21.2 70.6-20.8 104.6-20 42.8 1 85.2 6.2 127.8 10.2 4.8.5 9.4-1.1 13.2-3.9 32 .4 63.1-6.3 95.1-8.7 17.9-1.3 35.2 1.3 52.9 3.4 18.1 2.2 36 2 54.2 2.2 32.8.3 54.7 9.1 73.7 36.8 17.9 26.3 26.8 56.9 29.5 88.4 6.6 77.4 1.8 156.1-2.4 233.6z"/></svg>