<svg enable-background="new 0 0 857.9 1728" fill="#FF90BC" viewBox="0 0 857.9 1728" xmlns="http://www.w3.org/2000/svg"><path d="m799.7 602.9c-25.5-53.7-79.2-86.5-137.4-92-28.1-2.7-56.3 1.5-84.4 4.7 12.6-8.1 24.5-17.3 35-28.1 69.4-71.7 93.3-189.6 53.3-281.3-23.8-54.6-64.9-103.3-117.7-131.8-32.4-17.5-67.4-26.3-102.9-27.9-4-1.2-8.6-1.4-13.6-.3-21.9.2-44 3.1-65.8 8.7-.6.2-1.1.4-1.7.6-9.8.9-19.5 2-29.2 4-32.5 6.6-60 25.2-83.6 47.9-44.1 42.3-70.9 98.3-82.6 157.8-17.8 90 4.2 183.9 72.6 240.8-59.6 2.2-118.1 15.3-158 58.9-66.1 72.3-56 184.4-60.1 275.2-3.7 81.2-7.4 195.9 61.1 254 29.8 25.3 79.8 40.9 118.5 37.6h.2c.1 6.4.1 12.8-.1 19.2-1.8 57.1-2.6 114.2-3.5 171.3-.9 57.9-2.4 115.7-5 173.6-2.2 46.9-11.1 98.6 4.4 144.1 13.1 38.4 46.9 58.5 85.5 65.1 34.6 5.9 76 7.9 107.5-10.4 17-9.9 29.2-23.6 38.2-39.5 7.8 10.6 17.7 19.6 30.1 26.2 28.5 15.2 67.8 27.4 100.2 25.4 39.4-2.5 69.9-29.6 81.3-66.9 10.9-35.5 3.7-73 3.4-109.3-.4-49.7.3-99.5-.2-149.3-.9-82.4-2.4-164.7-3.3-247.1 9-.9 18-3 26.2-4.9 24.4-5.7 49.9-15.9 71.2-29.1 82.7-51.1 84.1-152.1 82.5-238.8-1.5-84.4 15.3-179.5-22.1-258.4zm-575.5-296.9c4.3-50.5 23.1-103.4 56.8-141.8 20-22.8 42.9-42 73.3-47.8 2.6-.5 5.2-.9 7.8-1.3 5.9 2.8 13 3.8 21.1 1.7 85.2-21.4 167.8 15.8 212.5 90.7 40.1 67.2 33.3 151.3-9.7 216-47.5 71.6-154.6 86.4-232.8 68.2-42.2-9.8-81.7-32.2-105.3-69.5-22.1-34.9-27.2-75.7-23.7-116.2zm512.7 719.8c-20.4 28.1-57.7 43.6-91.4 49.3-1.3-4-2.5-7.8-2.7-9.3-2.6-20.1-.8-41.3.4-61.4 3.1-54 2.5-108 3.6-162.1 1.4-63.6 3.5-127.2 3.7-190.9.2-38.7-60.2-38.8-60.2 0 .2 120.5-.5 241.7-6 362-.9 20.2-3.3 51.4 2.9 77.2.4 70.6 1.4 141.3 2.7 211.9 1.5 84.9.5 170.3 4.6 255.1 1.3 26.4 8.1 69.3-17.6 86.9-20.6 14.2-57.6-1.8-77.7-10.4-19.7-8.4-26.3-19.2-29.8-40.6-6.9-41.8-3.7-85.6-3.1-127.8 1.3-95.1 11.4-191.3 2.9-286.2-2.1-24.1-27.1-32.8-43.9-25.9-14.5.4-28.8 9.9-28.9 28.6-.7 98-10.4 196.4-7.4 294.4 1.4 46.9 12.4 112.4-14.5 152.9-11.6 17.4-32.3 19.2-55.7 18.5-25.3-.8-56.9-4-64.1-32.3-10-39.3-1.6-83.9.2-123.8 2.4-52.7 3.9-105.4 4.5-158.1.6-56 .4-111.9 1.8-167.9.7-27.4.5-54.5-2.4-81.8-.1-.7-.2-1.3-.2-2 3.6-12.4 5.5-25.9 6.8-39 4.8-47.9 4.7-97 7.4-145.1 4.3-76.6 6.3-154.4 3.4-231.1-1.6-41.3-62.6-41.3-64.2 0-2.2 59.3.2 118.8-1.3 178.1-1.2 45-5.6 89.7-6.1 134.7 0 1.1 0 2.1-.1 3.2-4.9 24.5-5.3 49.4-4.4 74.4-.4 2.3-.8 4.6-1.4 6.8-.4 1.8-1 3.6-1.5 5.4-5.9-.2-16-1.2-17.7-1.5-16.2-2.9-33.6-7.7-47.8-16.1-25.4-14.9-36.7-51.2-42.7-80.5-7.8-37.7-8.4-77-7.5-115.4 1-38.4 2-76.9 3.8-115.2 1.8-39.2 5.5-81.2 25.4-115.9 22.8-39.6 64-53.2 107.2-58.3h.1c.2 0 .4.1.6.1 49 .4 98 .2 147 2.2 24.1 1 48-1.7 72.1-1.4 15.3.2 30.4 1.5 45.6 1.8 42.3 10 84.7 3.5 127.9.2 43.8-3.4 88.3 1.4 119.4 36 48.8 54.4 31.4 144.4 30.3 210.6-1.1 66.1 17.9 151.9-24 209.7z"/></svg>