<svg enable-background="new 0 0 656.5 1728" fill="#C9C9C9" viewBox="0 0 656.5 1728" xmlns="http://www.w3.org/2000/svg"><path d="m537 368c0 .1.1.2.1.3.2.4.4.7.6 1-.1-.3-.5-1-.7-1.3 0-.2-.1-.3-.1-.4 0 .1 0 .2.1.3-.1 0-.1.1 0 .1z"/><path d="m566.8 267c-6.4-8-15-14.8-24.6-20.2-1.7-27.9-4.2-55.5-18-80.7-12.6-23.1-31-46.2-51.6-62.8-39.9-32.2-90.2-50.2-141-54.7-52.3-4.6-106.3 15.5-148 46.5-25 18.6-42.9 42.5-58.9 69-15.5 25.7-19.7 52.3-24.1 80.5-59.4 25.4-68.1 114-40.2 165.9 18.3 34.1 60.8 56.5 97.9 38.2 2.3-1.1 4.6-2.5 6.7-4 16.2 30.1 42 54.1 79.3 65 34.4 10 75.1 11.2 110.5 7.1 38-4.4 77.6-17.1 103.6-46.8 9.8-11.2 17.5-23.9 23.5-37.4 9.6 8.4 22.4 12.1 35.7 9.2 14.6-3.2 28.3-12.7 40.4-21.1 15.2-10.6 26.2-22.6 29-41.5 5.6-38.6 5.1-80.3-20.2-112.2zm-135 148.9c-26.4 52.3-96.3 53.6-147.1 48.3-24.9-2.6-46.6-9.3-63.8-28.2-16.6-18.3-24.1-44.3-25.7-68.5-2.3-35.9 1.8-77.2 22.3-107.6 14.1-21 29.4-30.9 51.3-34.2 4.7 1.8 10.4 2.1 16.8.4 47-12.9 103.7-21.6 134 23.2 15.8 23.3 22.3 53.6 24.6 81.3 2.2 28.5.7 59.3-12.4 85.3zm44-174.7c-16.4-36.1-44.5-64.8-83.7-75.8-39.4-11.1-82.9-5.2-121 8.1-2.1.7-4.1 1.7-5.8 2.7-29.1 3-55.2 13.6-75.8 36.8-8.7 9.8-15.7 20.3-21.6 31.2-4.6-3.6-9.8-6.3-15.7-7.8-.9-.2-1.8-.3-2.8-.4 2.5-14.7 6.2-29.1 13.9-42.5 12-20.8 25.9-41.4 45-56.3 35.1-27.3 77-40.6 121.1-37.1 37.8 3.1 78.8 17.1 108.1 41.6 16 13.3 28.6 31.2 38.9 49.1 8.1 14.2 11.7 29.9 14.1 45.9-5.1.9-10.1 2.2-14.7 4.5z"/><path d="m620.3 893c-.7-48.4-.1-97.4-3.5-145.7-.6-8-.9-16.1-1.4-24.4 4.9-21.6-.1-42.7-10.3-62-3-8-6.7-15.6-11.9-22.8-2.6-3.6-5.8-6.1-9.1-7.8-9.2-10.8-19.3-20.6-29.3-29-38.1-32.2-83.7-48.6-133.2-52.5-24.6-1.9-49.1-.7-73.7.2-22.7.9-45.4-.5-68-.6-40-.2-83 1.4-120.2 17.7-23.4 4.2-45.9 10.6-65.7 27.5-33.6 28.7-46.7 72.9-56.1 114.4-22.9 101.4-10.3 207.8-9.3 310.8.4 42 2.5 83.8 1.4 125.8-.7 27.7-3.8 67.3 18.1 88.3 11.9 11.4 31.4 14.4 46.9 17 16.6 2.8 32.9 4.2 49.1-.9-3.4 62.4-5.9 124.8-5.5 187.5.3 44.6 2 90.8 7.6 135.1 4.8 38.4 16.8 78 52.6 98.2 30.1 16.9 71.4 21.7 102.4 4.7 8.7-4.8 15.5-11.1 21.2-18.4 11.3 12.1 26.5 16.3 43.2 18.4 7 .9 14.3 1.8 21.6 2.3 5.4 6 13.6 9.1 23.9 6 22.2-6.8 45.1-13.7 61.1-31.8 18.6-21 23.2-50.6 25.7-77.6 5.9-64.4 1.1-130.6 1.7-195.2.4-45.8.4-91.6-.1-137.4 23.6 7.3 51.2 1.3 72.1-10.7 30.4-17.4 39.7-47.6 42.8-80.8 3.6-39.4 3.3-79.8 3.8-119.3.6-45.6 2.7-91.3 2.1-137zm-58.6 278.3c-5.4 16.8-27.5 28.5-45 25.5-9.7-1.6-15.1-11.5-18.2-22.9-1.5-43.4-6.1-86.8-8.4-130.2-.3-12.7-.7-25.4-1.2-38.1 0-6.9 0-13.8.2-20.6.1-3.1-.4-5.8-1.2-8.3-.7-20.7-1.4-41.4-1.5-62.2-.1-21.8 1.7-43.5 2.1-65.3.4-17.6-4.1-36.6.4-53.9 7.8-29.8-37.9-42.4-46.1-12.7-5.1 18.3-3.1 36.4-2.5 55.1.6 21-1.9 42-2 63-.2 27.6.7 55.2 1.8 82.7 0 .5-.2 1-.2 1.6-2.3 59.3 4.9 118.5 7.3 177.6 2.4 60.5 1.8 121 1 181.6-.8 60.2-1.1 120.4-.8 180.7.1 26.6 2.3 56.2-7.8 81.5-3.2 7.9-8.2 13.1-14.2 16.9-4.9-2.5-11-3.2-18-1-12.1 4-31.6 4.9-43.6.2-7.9-3.1-9.2-13.7-11.9-23.1-2.6-9.3-4.5-18.8-5.9-28.3 2.5-56.7-.2-114 1-170.8 1.3-62.7 3.1-125.5 3.2-188.2 0-29.7-41.2-32.8-49.9-9.3-1.1 2-2.1 4.1-2.7 6.6-6 24.2-6.2 48.7-4.8 73.5 1.4 25.9.9 51.7.6 77.6-.3 25.5 1.4 51 1.2 76.6-.2 26.2-1.9 52.3-2.3 78.5-.3 20.6-.1 44.3 2.9 67.5-1.3 14.1-4.4 27.4-11.1 38.5-11.5 19-43.1 12.7-59.1 3.8-26.1-14.4-28.1-53.3-30-79.5-3.2-43.2-6.1-86.4-6.1-129.7-.1-98.4 5.7-195.9 11.3-294.2 3.2-55.5 8.8-111.2 9.3-166.7.1-12.9-1-26-2.3-39.2.2-35.1-.3-70.2-.7-105.3.6-3.2.5-6.2-.1-8.9 0-6.4-.1-12.8-.2-19.2-.1-35.5-55.1-35.6-55.2 0-.3 92.9 1.8 186-4.3 278.8-2.6 39.7 2.8 81.7-7.9 120.5-3.3 11.9-7 17.4-19.8 17.3-4.6 0-9.2-1-13.7-1.9-4-.8-12.4-4.5-18-5.5-.7-3.1-2-6.8-2.2-9.2-1.6-15.3-.9-31-.4-46.4 1.1-35.7-1-71.2-1.5-106.9-1.1-88.9-9.6-180 0-268.7 4.1-38.2 12.4-84.2 37.1-115 8-9.9 17.7-16.6 28.4-21.4 4.4.3 9.2-.8 14.2-4 1.5-1 3.1-1.7 4.7-2.6 22.2-5.8 46.5-7.3 68-13.5 3.4-1 6.2-2.5 8.6-4.3 10.3-.2 20.6-.1 30.7.2 40.3 1 80.3-.8 120.5-.7 39.4.1 77.8 5.7 111.1 28.1 18.5 12.4 45.1 35.1 55.9 59.9 2.3 10.3 3.1 21.2 3.5 31.9-.8 4.3-.6 8.2.4 11.6.1 2.5.2 5 .3 7.5 1.9 37.3.9 74.3 1.9 111.6 2 77 1.7 154.3-.8 231.3-1.2 28.9 2.9 62.2-6 90z"/></svg>