<svg height="33" preserveAspectRatio="xMidYMid" viewBox="0 0 62 33" width="62" xmlns="http://www.w3.org/2000/svg"><path d="m58.681 26.844c-.359 3.433-3.32 6.144-6.909 6.144-3.5 0-6.461-2.711-6.909-6.144h-24.676c-.359 3.433-3.32 6.144-6.909 6.144-3.499 0-6.46-2.711-6.909-6.144h-4.486v-1.897h-1.885v-1.807h1.885v-9.848l11.664-13.281h24.048l8.524 12.739h8.703c3.949 0 7.179 3.252 7.179 7.228v6.866zm-6.82 4.427c2.872 0 5.205-2.349 5.205-5.24s-2.333-5.24-5.205-5.24c-2.871 0-5.204 2.349-5.204 5.24s2.333 5.24 5.204 5.24zm-38.583 0c2.871 0 5.294-2.349 5.204-5.24 0-2.891-2.333-5.24-5.204-5.24s-5.204 2.349-5.204 5.24 2.333 5.24 5.204 5.24zm47.018-11.293c0-2.982-2.423-5.421-5.384-5.421h-9.601l-8.524-12.739h-22.432l-10.678 12.197h.09v11.022h2.692c.359-3.433 3.32-6.143 6.909-6.143 3.499 0 6.46 2.71 6.909 6.143h24.675c.359-3.433 3.32-6.143 6.909-6.143 3.5 0 6.461 2.71 6.91 6.143h1.525zm-36.879-17.166h12.832l7.716 11.655h-20.548zm1.795 9.938h15.433l-5.383-8.131h-10.05zm-10.139-9.938h6.998v11.745h-17.227zm5.204 1.807h-4.397l-7.088 8.131h11.485zm14.536 15.088h-3.589v-1.807h3.589zm-19.202 2.891-.987 1.446c-.449-.271-.897-.452-1.346-.452-1.256 0-2.333.994-2.333 2.348 0 .543.18.994.449 1.356l-1.436.994c-.449-.723-.718-1.536-.718-2.35 0-2.258 1.885-4.155 4.038-4.065.808 0 1.615.271 2.333.723zm36.25 5.692c1.257 0 2.333-.994 2.333-2.35 0-.542-.179-.993-.448-1.354l1.525-1.085c.449.723.718 1.536.718 2.349 0 2.259-1.795 4.156-4.128 4.156-.807 0-1.615-.271-2.332-.722l.987-1.446c.448.271.897.452 1.345.452z" fill="#FF90BC" fill-rule="evenodd"/></svg>