<svg xmlns="http://www.w3.org/2000/svg" height="60" preserveAspectRatio="xMidYMid" viewBox="0 0 33 33" width="60"><path d="m31.528 33h-30.13c-.771 0-1.402-.632-1.402-1.404v-24.224c0-.772.631-1.404 1.402-1.404h6.656v-4.564c0-.772.631-1.404 1.402-1.404h14.014c.77 0 1.401.632 1.401 1.404v4.564h6.727c.77 0 1.401.632 1.401 1.404v24.224c-.07.772-.701 1.404-1.471 1.404zm-9.39-30.262h-11.351v3.23h11.351zm8.058 6.039h-6.726-14.014-6.727v21.485h27.467zm-19.129 9.268h3.994v-4.002c0-.773.631-1.405 1.402-1.405.77 0 1.401.632 1.401 1.405v4.002h4.064c.771 0 1.401.632 1.401 1.404s-.7 1.404-1.471 1.404h-3.994v4.073c0 .772-.631 1.404-1.401 1.404-.771 0-1.402-.632-1.402-1.404v-4.073h-3.994c-.77 0-1.401-.632-1.401-1.404s.631-1.404 1.401-1.404z" fill="#FF90BC" fill-rule="evenodd"/></svg>